<svg xmlns="http://www.w3.org/2000/svg" xmlns:xlink="http://www.w3.org/1999/xlink" width="1920" zoomAndPan="magnify" viewBox="0 0 1440 809.999993" height="1080" preserveAspectRatio="xMidYMid meet" version="1.0"><defs><g/><clipPath id="88129c3e3b"><path d="M 18 258 L 445.144531 258 L 445.144531 552 L 18 552 Z M 18 258 " clip-rule="nonzero"/></clipPath></defs><path fill="#ffffff" d="M 235.585938 431.507812 C 232.90625 431.507812 230.257812 431.085938 227.625 430.234375 L 105.578125 389.511719 C 103.363281 395.265625 102.257812 402.679688 102.257812 413.496094 C 110.21875 418.105469 117.984375 427.382812 117.984375 443.363281 C 117.984375 453.160156 113.085938 460.203125 108.878906 464.882812 C 126.984375 485.894531 176.808594 501.003906 235.605469 501.003906 C 309.6875 501.003906 369.722656 477.023438 369.722656 447.488281 C 369.722656 440.964844 369.722656 414.316406 369.722656 388.15625 L 243.515625 430.234375 C 240.917969 431.085938 238.269531 431.507812 235.585938 431.507812 Z M 235.585938 431.507812 " fill-opacity="1" fill-rule="nonzero"/><g clip-path="url(#88129c3e3b)"><path fill="#ffffff" d="M 439.414062 325.882812 L 238.234375 258.800781 C 236.492188 258.230469 234.664062 258.230469 232.9375 258.800781 L 31.761719 325.882812 C 28.339844 327.023438 26.027344 330.226562 26.027344 333.832031 C 26.027344 337.4375 28.339844 340.640625 31.761719 341.78125 L 77.882812 357.160156 C 67.269531 369.472656 61.101562 386.828125 58.835938 415.070312 C 51.542969 418.507812 46.398438 425.839844 46.398438 434.457031 C 46.398438 443.230469 51.660156 450.691406 59.171875 454.0625 C 52.617188 511.167969 18.433594 530.203125 18.433594 535.082031 C 18.433594 537.566406 44.90625 551.855469 51.191406 551.855469 C 60.914062 551.855469 84.253906 535.351562 84.253906 499.714844 C 84.253906 478.71875 82.359375 462.851562 80.363281 451.597656 C 85.742188 447.691406 89.484375 441.636719 89.484375 434.457031 C 89.484375 426.625 85.105469 420.085938 78.855469 416.3125 C 82.390625 369.707031 96.792969 361.90625 131.628906 347.453125 C 135.117188 346.078125 141.703125 343.410156 145.511719 341.832031 C 152.351562 339.015625 158.535156 336.5 164.472656 334.117188 C 183.632812 326.503906 199.828125 320.382812 212.183594 315.839844 C 225.710938 311.007812 231.78125 309.246094 232 309.179688 C 237.179688 307.4375 242.945312 310.238281 244.722656 315.519531 C 246.484375 320.785156 243.667969 326.488281 238.386719 328.265625 C 237.984375 328.398438 214.445312 335.125 153.207031 360.449219 C 149.265625 362.074219 145.511719 363.550781 141.9375 364.960938 C 134.679688 367.828125 128.660156 370.125 123.617188 372.441406 L 232.9375 408.882812 C 233.808594 409.152344 234.683594 409.300781 235.585938 409.300781 C 236.492188 409.300781 237.363281 409.152344 238.234375 408.867188 L 439.414062 341.78125 C 442.832031 340.640625 445.144531 337.4375 445.144531 333.832031 C 445.144531 330.226562 442.832031 327.023438 439.414062 325.882812 Z M 439.414062 325.882812 " fill-opacity="1" fill-rule="nonzero"/></g><g fill="#ffffff" fill-opacity="1"><g transform="translate(459.695686, 458.027408)"><g><path d="M 104.425781 0 L 136.101562 0 L 81.777344 -134.371094 L 54.324219 -134.371094 L 1.535156 0 L 32.441406 0 L 41.65625 -25.339844 L 95.019531 -25.339844 Z M 68.339844 -98.859375 L 86 -50.675781 L 50.675781 -50.675781 Z M 68.339844 -98.859375 "/></g></g></g><g fill="#ffffff" fill-opacity="1"><g transform="translate(597.518799, 458.027408)"><g><path d="M 61.621094 3.070312 C 88.6875 3.070312 109.992188 -14.589844 114.792969 -40.695312 L 86.574219 -40.695312 C 81.777344 -29.5625 72.945312 -23.417969 61.621094 -23.417969 C 46.648438 -23.417969 34.9375 -35.898438 34.9375 -51.828125 C 34.9375 -67.953125 46.453125 -80.238281 61.621094 -80.238281 C 72.753906 -80.238281 82.160156 -74.097656 86.574219 -63.921875 L 114.410156 -63.921875 C 109.417969 -89.453125 88.6875 -106.539062 61.8125 -106.539062 C 30.328125 -106.539062 6.527344 -83.121094 6.527344 -52.019531 C 6.527344 -20.921875 30.328125 3.070312 61.621094 3.070312 Z M 61.621094 3.070312 "/></g></g></g><g fill="#ffffff" fill-opacity="1"><g transform="translate(717.490176, 458.027408)"><g><path d="M 114.023438 -52.019531 C 114.023438 -81.96875 92.140625 -106.539062 60.277344 -106.539062 C 29.5625 -106.539062 6.527344 -82.925781 6.527344 -51.828125 C 6.527344 -20.730469 29.753906 3.070312 60.277344 3.070312 C 84.460938 3.070312 104.234375 -11.324219 111.722656 -33.976562 L 82.351562 -33.976562 C 78.128906 -26.492188 70.066406 -21.882812 60.277344 -21.882812 C 46.648438 -21.882812 37.433594 -29.753906 34.9375 -43.960938 L 113.449219 -43.960938 C 113.832031 -46.648438 114.023438 -49.335938 114.023438 -52.019531 Z M 60.277344 -82.542969 C 72.945312 -82.542969 81.96875 -75.632812 86 -62.964844 L 35.703125 -62.964844 C 38.96875 -75.25 47.796875 -82.542969 60.277344 -82.542969 Z M 60.277344 -82.542969 "/></g></g></g><g fill="#ffffff" fill-opacity="1"><g transform="translate(838.03739, 458.027408)"><g><path d="M 155.871094 14.589844 L 129.191406 -16.125 C 142.433594 -28.792969 150.496094 -46.648438 150.496094 -67.1875 C 150.496094 -107.113281 119.976562 -137.253906 79.089844 -137.253906 C 38.007812 -137.253906 7.292969 -106.921875 7.292969 -67.1875 C 7.292969 -27.257812 38.007812 3.070312 79.089844 3.070312 C 90.414062 3.070312 101.164062 0.769531 110.378906 -3.648438 L 126.117188 14.589844 Z M 79.089844 -24.378906 C 55.09375 -24.378906 36.855469 -43 36.855469 -67.1875 C 36.855469 -91.375 55.09375 -109.800781 79.089844 -109.800781 C 103.082031 -109.800781 120.933594 -91.566406 120.933594 -67.1875 C 120.933594 -55.667969 117.097656 -45.496094 110.378906 -38.007812 L 94.0625 -57.011719 L 64.308594 -57.011719 L 90.988281 -26.105469 C 87.34375 -24.953125 83.3125 -24.378906 79.089844 -24.378906 Z M 79.089844 -24.378906 "/></g></g></g><g fill="#ffffff" fill-opacity="1"><g transform="translate(996.399632, 458.027408)"><g><path d="M 60.660156 3.070312 C 90.03125 3.070312 109.417969 -15.742188 109.417969 -43.765625 L 109.417969 -103.660156 L 81.390625 -103.660156 L 81.390625 -46.839844 C 81.390625 -32.25 73.714844 -23.417969 60.660156 -23.417969 C 47.796875 -23.417969 39.929688 -32.058594 39.929688 -46.839844 L 39.929688 -103.660156 L 11.902344 -103.660156 L 11.902344 -43.765625 C 11.902344 -15.742188 31.480469 3.070312 60.660156 3.070312 Z M 60.660156 3.070312 "/></g></g></g><g fill="#ffffff" fill-opacity="1"><g transform="translate(1117.90664, 458.027408)"><g><path d="M 114.023438 -52.019531 C 114.023438 -81.96875 92.140625 -106.539062 60.277344 -106.539062 C 29.5625 -106.539062 6.527344 -82.925781 6.527344 -51.828125 C 6.527344 -20.730469 29.753906 3.070312 60.277344 3.070312 C 84.460938 3.070312 104.234375 -11.324219 111.722656 -33.976562 L 82.351562 -33.976562 C 78.128906 -26.492188 70.066406 -21.882812 60.277344 -21.882812 C 46.648438 -21.882812 37.433594 -29.753906 34.9375 -43.960938 L 113.449219 -43.960938 C 113.832031 -46.648438 114.023438 -49.335938 114.023438 -52.019531 Z M 60.277344 -82.542969 C 72.945312 -82.542969 81.96875 -75.632812 86 -62.964844 L 35.703125 -62.964844 C 38.96875 -75.25 47.796875 -82.542969 60.277344 -82.542969 Z M 60.277344 -82.542969 "/></g></g></g><g fill="#ffffff" fill-opacity="1"><g transform="translate(1238.453853, 458.027408)"><g><path d="M 50.101562 3.070312 C 76.402344 3.070312 93.675781 -10.75 93.675781 -31.867188 C 93.675781 -57.203125 71.984375 -60.660156 55.09375 -63.730469 C 44.34375 -65.652344 35.511719 -67.378906 35.511719 -74.289062 C 35.511719 -80.238281 40.695312 -84.078125 49.335938 -84.078125 C 59.125 -84.078125 64.882812 -80.046875 65.074219 -71.792969 L 91.757812 -71.792969 C 91.566406 -92.523438 75.058594 -106.539062 50.101562 -106.539062 C 25.148438 -106.539062 8.445312 -92.910156 8.445312 -73.328125 C 8.445312 -48.949219 29.5625 -44.535156 46.070312 -41.65625 C 57.011719 -39.929688 66.035156 -37.816406 66.035156 -30.714844 C 66.035156 -23.804688 58.933594 -20.15625 51.253906 -20.15625 C 41.273438 -20.15625 34.167969 -24.761719 33.976562 -33.976562 L 6.71875 -33.976562 C 6.71875 -11.902344 24.1875 3.070312 50.101562 3.070312 Z M 50.101562 3.070312 "/></g></g></g><g fill="#ffffff" fill-opacity="1"><g transform="translate(1339.229836, 458.027408)"><g><path d="M 64.113281 -24.953125 C 53.75 -24.953125 47.992188 -30.714844 47.992188 -40.695312 L 47.992188 -81.007812 L 76.207031 -81.007812 L 76.207031 -103.660156 L 47.605469 -103.660156 L 47.605469 -130.535156 L 42.230469 -130.535156 L 1.34375 -87.148438 L 1.34375 -81.007812 L 19.964844 -81.007812 L 19.964844 -36.855469 C 19.964844 -14.011719 33.976562 0 56.820312 0 L 76.785156 0 L 76.785156 -24.953125 Z M 64.113281 -24.953125 "/></g></g></g></svg>